<?xml version="1.0"?><svg xmlns="http://www.w3.org/2000/svg"  viewBox="0 0 128 128" width="50px" height="50px">    <path d="M 14 1 C 6.8 1 1 6.8 1 14 L 1 94 C 1 101.2 6.8 107 14 107 L 70 107 C 71.7 107 73 105.7 73 104 C 73 102.3 71.7 101 70 101 L 14 101 C 10.1 101 7 97.9 7 94 L 7 14 C 7 10.1 10.1 7 14 7 L 114 7 C 117.9 7 121 10.1 121 14 L 121 54 C 121 55.7 122.3 57 124 57 C 125.7 57 127 55.7 127 54 L 127 14 C 127 6.8 121.2 1 114 1 L 14 1 z M 19 31 C 17.3 31 16 32.3 16 34 C 16 35.7 17.3 37 19 37 L 109 37 C 110.7 37 112 35.7 112 34 C 112 32.3 110.7 31 109 31 L 19 31 z M 19 51 C 17.3 51 16 52.3 16 54 C 16 55.7 17.3 57 19 57 L 72 57 C 73.7 57 75 55.7 75 54 C 75 52.3 73.7 51 72 51 L 19 51 z M 107 59 C 96 59 87 68 87 79 C 87 90 96 99 107 99 C 118 99 127 90 127 79 C 127 68 118 59 107 59 z M 107 65 C 114.7 65 121 71.3 121 79 C 121 86.7 114.7 93 107 93 C 99.3 93 93 86.7 93 79 C 93 71.3 99.3 65 107 65 z M 19 71 C 17.3 71 16 72.3 16 74 C 16 75.7 17.3 77 19 77 L 52 77 C 53.7 77 55 75.7 55 74 C 55 72.3 53.7 71 52 71 L 19 71 z M 72 71 A 3 3 0 0 0 69 74 A 3 3 0 0 0 72 77 A 3 3 0 0 0 75 74 A 3 3 0 0 0 72 71 z M 90 101 C 88.3 101 87 102.3 87 104 L 87 124 C 87 125.1 87.6 126.09961 88.5 126.59961 C 89.4 127.09961 90.6 127.09961 91.5 126.59961 L 107 117.5 L 122.5 126.59961 C 123 126.89961 123.5 127 124 127 C 124.5 127 125 126.89961 125.5 126.59961 C 126.4 126.09961 127 125.1 127 124 L 127 104 C 127 102.3 125.7 101 124 101 C 122.3 101 121 102.3 121 104 L 121 118.80078 L 108.5 111.5 C 107.6 110.9 106.4 110.9 105.5 111.5 L 93 118.80078 L 93 104 C 93 102.3 91.7 101 90 101 z"/></svg>