<svg xmlns="http://www.w3.org/2000/svg"  viewBox="0 0 64 64" width="64px" height="64px"><path d="M 49.011719 20.876953 A 1.0001 1.0001 0 0 0 48.15625 22.423828 C 48.15625 22.423828 49.310646 24.245605 51.173828 26.310547 C 52.725124 28.029829 54.858354 29.800168 57.259766 31.027344 C 53.445228 34.053454 50.758235 36.490715 48.492188 39.095703 C 49.157266 35.776356 50.7333 33.6417 52.65625 31.71875 A 1.0001 1.0001 0 0 0 51.949219 30.011719 L 4.9492188 30.011719 A 1.0001 1.0001 0 1 0 4.9492188 32.011719 L 49.736328 32.011719 C 47.780968 34.419832 46.238103 37.49908 46.136719 42.089844 A 1.0001 1.0001 0 0 0 47.953125 42.689453 C 50.825054 38.634737 53.794426 36.280613 59.621094 31.671875 A 1.0001 1.0001 0 0 0 59.337891 29.947266 C 56.830218 29.047897 54.405771 26.907511 52.658203 24.970703 C 50.910636 23.033895 49.84375 21.351562 49.84375 21.351562 A 1.0001 1.0001 0 0 0 49.011719 20.876953 z"/></svg>