<svg xmlns="http://www.w3.org/2000/svg"  viewBox="0 0 48 48" width="50px" height="50px"><path d="M 24 6.0097656 C 22.968557 6.0097656 21.937337 6.2351558 20.972656 6.6855469 L 2.8652344 15.140625 A 1.50015 1.50015 0 0 0 2.8652344 17.859375 L 10.027344 21.203125 A 1.50015 1.50015 0 0 0 10 21.5 L 10 34.529297 C 10 36.648372 11.211488 38.621512 13.167969 39.515625 C 16.759127 41.156999 20.311715 42.011568 23.998047 42 C 24.000661 41.999992 24.003245 42.000009 24.005859 42 A 1.50015 1.50015 0 0 0 24.167969 41.992188 C 26.835363 41.963918 29.576961 41.484844 32.232422 40.578125 C 31.542422 39.845125 31.10625 38.881453 31.03125 37.814453 C 28.70225 38.583453 26.311141 38.992 23.994141 39 C 20.769277 39.01119 17.692311 38.284572 14.416016 36.787109 C 13.558498 36.395222 13 35.504222 13 34.529297 L 13 22.591797 L 20.972656 26.314453 C 22.902017 27.215235 25.097983 27.215235 27.027344 26.314453 L 34 23.058594 L 34 35.503906 A 2.5 2.5 0 0 0 35.5 40 A 2.5 2.5 0 0 0 37 35.501953 L 37 21.835938 A 1.50015 1.50015 0 0 0 36.759766 20.765625 A 1.50015 1.50015 0 0 0 36.685547 20.664062 A 1.50015 1.50015 0 0 0 35.914062 20.138672 A 1.50015 1.50015 0 0 0 35.910156 20.136719 L 25.130859 15.138672 A 1.50015 1.50015 0 0 0 24.402344 14.992188 A 1.50015 1.50015 0 0 0 23.800781 17.828125 A 1.5003989 1.5003989 0 0 0 23.869141 17.861328 L 30.980469 21.158203 L 25.757812 23.597656 C 24.577174 24.148874 23.422826 24.148874 22.242188 23.597656 L 7.0449219 16.5 L 22.242188 9.4042969 C 23.422826 8.853079 24.577174 8.853079 25.757812 9.4042969 L 40.955078 16.5 L 36.902344 18.392578 L 36.972656 18.425781 C 36.973656 18.426781 36.976516 18.425734 36.978516 18.427734 C 36.980516 18.427734 36.981422 18.428688 36.982422 18.429688 C 36.984422 18.429688 36.987234 18.431594 36.990234 18.433594 C 37.775234 18.802594 38.360406 19.426156 38.691406 20.160156 C 38.778406 20.355156 38.847437 20.559531 38.898438 20.769531 L 45.134766 17.857422 A 1.5002761 1.5002761 0 0 0 45.613281 17.505859 C 45.614248 17.504789 45.614271 17.503026 45.615234 17.501953 A 1.5002761 1.5002761 0 0 0 45.902344 17.027344 C 45.906073 17.017442 45.910542 17.008026 45.914062 16.998047 A 1.5002761 1.5002761 0 0 0 45.998047 16.443359 C 45.99795 16.440705 45.996205 16.438202 45.996094 16.435547 A 1.5002761 1.5002761 0 0 0 45.958984 16.152344 C 45.958183 16.148991 45.955903 16.145929 45.955078 16.142578 A 1.5002761 1.5002761 0 0 0 45.865234 15.882812 C 45.862645 15.877073 45.862042 15.870958 45.859375 15.865234 C 45.85649 15.859044 45.852567 15.853788 45.849609 15.847656 A 1.5002761 1.5002761 0 0 0 45.703125 15.603516 C 45.700903 15.600516 45.697555 15.598682 45.695312 15.595703 A 1.5002761 1.5002761 0 0 0 45.523438 15.404297 C 45.508522 15.390337 45.493938 15.37657 45.478516 15.363281 A 1.5002761 1.5002761 0 0 0 45.296875 15.230469 C 45.278923 15.219214 45.260571 15.209687 45.242188 15.199219 A 1.5002761 1.5002761 0 0 0 45.134766 15.140625 L 27.027344 6.6855469 C 26.062663 6.2351558 25.031443 6.0097656 24 6.0097656 z"/></svg>