<svg xmlns="http://www.w3.org/2000/svg"  viewBox="0 0 80 80" width="50px" height="50px"><path d="M 60 14 L 60 24 L 50 24 L 50 34 L 40 34 L 40 44 L 30 44 L 30 54 L 20 54 L 20 64 L 14 64 C 13.640625 63.996094 13.304688 64.183594 13.121094 64.496094 C 12.941406 64.808594 12.941406 65.191406 13.121094 65.503906 C 13.304688 65.816406 13.640625 66.003906 14 66 L 22 66 L 22 56 L 32 56 L 32 46 L 42 46 L 42 36 L 52 36 L 52 26 L 62 26 L 62 16 L 66 16 C 66.359375 16.003906 66.695313 15.816406 66.878906 15.503906 C 67.058594 15.191406 67.058594 14.808594 66.878906 14.496094 C 66.695313 14.183594 66.359375 13.996094 66 14 Z M 70 14 C 69.449219 14 69 14.449219 69 15 C 69 15.550781 69.449219 16 70 16 C 70.550781 16 71 15.550781 71 15 C 71 14.449219 70.550781 14 70 14 Z M 74 14 C 73.449219 14 73 14.449219 73 15 C 73 15.550781 73.449219 16 74 16 C 74.550781 16 75 15.550781 75 15 C 75 14.449219 74.550781 14 74 14 Z M 6 64 C 5.449219 64 5 64.449219 5 65 C 5 65.550781 5.449219 66 6 66 C 6.550781 66 7 65.550781 7 65 C 7 64.449219 6.550781 64 6 64 Z M 10 64 C 9.449219 64 9 64.449219 9 65 C 9 65.550781 9.449219 66 10 66 C 10.550781 66 11 65.550781 11 65 C 11 64.449219 10.550781 64 10 64 Z"/></svg>