<svg xmlns="http://www.w3.org/2000/svg"  viewBox="0 0 48 48" width="48px" height="48px"><radialGradient id="YyM4fG~1YNjZ7VzYYfKrCa" cx="70.129" cy="13.257" r="6.237" gradientTransform="matrix(-.9364 -.2165 -.3632 1.5587 102.101 3)" gradientUnits="userSpaceOnUse"><stop offset="0" stop-color="#90886f"/><stop offset=".591" stop-color="#cfc293"/><stop offset=".677" stop-color="#bfb38a"/><stop offset=".886" stop-color="#9d9476"/><stop offset="1" stop-color="#90886f"/></radialGradient><path fill="url(#YyM4fG~1YNjZ7VzYYfKrCa)" d="M26,12c0,0,1.2-5.8,2.2-7.7c0.6-1.1,1.4-1.8,3.1-2.2c1-0.2,1.8,2.8,1.7,3c-1.4,1.2-2.2,6.9-2.2,6.9H26z"/><radialGradient id="YyM4fG~1YNjZ7VzYYfKrCb" cx="66.845" cy="10.715" r="2.426" gradientTransform="matrix(-.9474 -.1621 -.1332 .7727 99.532 8.602)" gradientUnits="userSpaceOnUse"><stop offset=".4" stop-color="#b3651b"/><stop offset=".695" stop-color="#a17746"/><stop offset="1" stop-color="#90886f"/></radialGradient><path fill="url(#YyM4fG~1YNjZ7VzYYfKrCb)" d="M29.5,2.9c0.5-0.3,1.1-0.6,1.9-0.8c1-0.2,2.4-0.2,3.3,0.1C36.2,2.7,36.9,5,37,6.2c0,0.3-0.1,0.5-1-0.6	c-0.9-1.2-2.8-0.6-3-0.5C32.8,2.1,29.9,2.6,29.5,2.9z"/><radialGradient id="YyM4fG~1YNjZ7VzYYfKrCc" cx="67.934" cy="11.081" r="6.215" gradientTransform="matrix(.8188 -.5017 -.5339 -.8644 -15.983 50.059)" gradientUnits="userSpaceOnUse"><stop offset=".305" stop-color="#90886f" stop-opacity="0"/><stop offset=".66" stop-color="#cfc293"/><stop offset=".71" stop-color="#bfb38a"/><stop offset=".83" stop-color="#9d9476"/><stop offset=".895" stop-color="#90886f"/></radialGradient><path fill="url(#YyM4fG~1YNjZ7VzYYfKrCc)" d="M29.5,2.9c0.5-0.3,1.1-0.6,1.9-0.8c1-0.2,2.4-0.2,3.3,0.1C36.2,2.7,36.9,5,37,6.2c0,0.3-0.1,0.5-1-0.6	c-0.9-1.2-2.8-0.6-3-0.5C32.8,2.1,29.9,2.6,29.5,2.9z"/><path fill="#f2c98a" d="M35,18c0,0,0,1,2,0s5-3,7-3s3,1,3,2c0,2-3,6-5,6s-4-1-5-1c-0.2,0-2,1-2,1V18z"/><radialGradient id="YyM4fG~1YNjZ7VzYYfKrCd" cx="43.857" cy="17.357" r="5.099" gradientUnits="userSpaceOnUse"><stop offset=".25" stop-color="#f1ead6"/><stop offset=".462" stop-color="#f1e0c0" stop-opacity=".718"/><stop offset="1" stop-color="#f2c98a" stop-opacity="0"/></radialGradient><path fill="url(#YyM4fG~1YNjZ7VzYYfKrCd)" d="M35,18c0,0,0,1,2,0s5-3,7-3s3,1,3,2c0,2-3,6-5,6s-4-1-5-1c-0.2,0-2,1-2,1V18z"/><radialGradient id="YyM4fG~1YNjZ7VzYYfKrCe" cx="39.33" cy="15.686" r="11.407" fx="36.656" fy="13.757" gradientUnits="userSpaceOnUse"><stop offset=".682" stop-color="#f2c98a" stop-opacity="0"/><stop offset=".693" stop-color="#eec283" stop-opacity=".084"/><stop offset=".732" stop-color="#e2af6f" stop-opacity=".39"/><stop offset=".771" stop-color="#daa363" stop-opacity=".695"/><stop offset=".809" stop-color="#d89f5f"/></radialGradient><path fill="url(#YyM4fG~1YNjZ7VzYYfKrCe)" d="M35,18c0,0,0,1,2,0s5-3,7-3s3,1,3,2c0,2-3,6-5,6s-4-1-5-1c-0.2,0-2,1-2,1V18z"/><radialGradient id="YyM4fG~1YNjZ7VzYYfKrCf" cx="37.618" cy="20.239" r="6.26" fx="36.746" fy="20.158" gradientTransform="matrix(.9843 -.1764 .1121 .6256 -1.679 14.212)" gradientUnits="userSpaceOnUse"><stop offset=".163" stop-color="#624334"/><stop offset="1" stop-color="#d89f5f"/></radialGradient><path fill="url(#YyM4fG~1YNjZ7VzYYfKrCf)" d="M43.2,16c-1.8,0-4.6,3.5-6.4,4.2c-0.7,0.3-0.4,0.8,0,0.9c0.9,0.3,2.7,0.8,4.6,0.8c1.8,0,4.6-3,4.6-4.5	C46,16.8,45.1,16,43.2,16z"/><path fill="#f2c98a" d="M13,18c0,0,0,1-2,0s-5-3-7-3s-3,1-3,2c0,2,3,6,5,6s4-1,5-1c0.2,0,2,1,2,1V18z"/><radialGradient id="YyM4fG~1YNjZ7VzYYfKrCg" cx="145.857" cy="17.357" r="5.099" gradientTransform="matrix(-1 0 0 1 150 0)" gradientUnits="userSpaceOnUse"><stop offset=".25" stop-color="#f1ead6"/><stop offset=".462" stop-color="#f1e0c0" stop-opacity=".718"/><stop offset="1" stop-color="#f2c98a" stop-opacity="0"/></radialGradient><path fill="url(#YyM4fG~1YNjZ7VzYYfKrCg)" d="M13,18c0,0,0,1-2,0s-5-3-7-3s-3,1-3,2c0,2,3,6,5,6s4-1,5-1c0.2,0,2,1,2,1V18z"/><radialGradient id="YyM4fG~1YNjZ7VzYYfKrCh" cx="141.329" cy="15.686" r="11.407" fx="138.656" fy="13.757" gradientTransform="matrix(-1 0 0 1 150 0)" gradientUnits="userSpaceOnUse"><stop offset=".682" stop-color="#f2c98a" stop-opacity="0"/><stop offset=".693" stop-color="#eec283" stop-opacity=".084"/><stop offset=".732" stop-color="#e2af6f" stop-opacity=".39"/><stop offset=".771" stop-color="#daa363" stop-opacity=".695"/><stop offset=".809" stop-color="#d89f5f"/></radialGradient><path fill="url(#YyM4fG~1YNjZ7VzYYfKrCh)" d="M13,18c0,0,0,1-2,0s-5-3-7-3s-3,1-3,2c0,2,3,6,5,6s4-1,5-1c0.2,0,2,1,2,1V18z"/><radialGradient id="YyM4fG~1YNjZ7VzYYfKrCi" cx="139.618" cy="20.239" r="6.26" fx="138.746" fy="20.158" gradientTransform="matrix(-.9843 -.1764 -.1121 .6256 150.08 32.2)" gradientUnits="userSpaceOnUse"><stop offset=".163" stop-color="#624334"/><stop offset="1" stop-color="#d89f5f"/></radialGradient><path fill="url(#YyM4fG~1YNjZ7VzYYfKrCi)" d="M4.8,16c1.8,0,4.6,3.5,6.4,4.2c0.7,0.3,0.4,0.8,0,0.9C10.3,21.5,8.4,22,6.6,22C4.8,22,2,19,2,17.5	C2,16.8,2.9,16,4.8,16z"/><radialGradient id="YyM4fG~1YNjZ7VzYYfKrCj" cx="14.996" cy="13.257" r="6.237" gradientTransform="matrix(.9364 -.2165 .3632 1.5587 -2.474 -8.935)" gradientUnits="userSpaceOnUse"><stop offset="0" stop-color="#90886f"/><stop offset=".591" stop-color="#cfc293"/><stop offset=".677" stop-color="#bfb38a"/><stop offset=".886" stop-color="#9d9476"/><stop offset="1" stop-color="#90886f"/></radialGradient><path fill="url(#YyM4fG~1YNjZ7VzYYfKrCj)" d="M22,12c0,0-1.2-5.8-2.2-7.7c-0.6-1.1-1.4-1.8-3.1-2.2c-1-0.2-1.8,2.8-1.7,3c1.4,1.2,2.2,6.9,2.2,6.9H22z"/><radialGradient id="YyM4fG~1YNjZ7VzYYfKrCk" cx="11.712" cy="10.715" r="2.426" gradientTransform="matrix(.9474 -.1621 .1332 .7727 .703 -.333)" gradientUnits="userSpaceOnUse"><stop offset=".4" stop-color="#b3651b"/><stop offset=".695" stop-color="#a17746"/><stop offset="1" stop-color="#90886f"/></radialGradient><path fill="url(#YyM4fG~1YNjZ7VzYYfKrCk)" d="M18.5,2.9c-0.5-0.3-1.1-0.6-1.9-0.8c-1-0.2-2.4-0.2-3.3,0.1C11.8,2.7,11.1,5,11,6.2c0,0.3,0.1,0.5,1-0.6	c0.9-1.2,2.8-0.6,3-0.5C15.2,2.1,18.1,2.6,18.5,2.9z"/><radialGradient id="YyM4fG~1YNjZ7VzYYfKrCl" cx="21.169" cy="23.715" r="11.206" fx="21.173" fy="26.258" gradientTransform="matrix(.9262 0 0 1.3451 4.242 -8.183)" gradientUnits="userSpaceOnUse"><stop offset=".232" stop-color="#f1ead6"/><stop offset=".387" stop-color="#f1e8d0"/><stop offset=".587" stop-color="#f1e1c0"/><stop offset=".811" stop-color="#f2d5a6"/><stop offset="1" stop-color="#f2c98a"/></radialGradient><path fill="url(#YyM4fG~1YNjZ7VzYYfKrCl)" d="M33.2,15c-0.9-3-2.5-5-5.2-5c-0.9,0-1.7,0.3-2.4,0.6c-1,0.6-2.3,0.5-3.4,0C21.7,10.2,20.9,10,20,10	c-2.7,0-4.3,2-5.2,5c-0.6,1.8-2.8,2.4-2.8,5.3c0,3,1.3,4.9,2.7,9.2c1.3,4.3,2,12.5,6.8,12.5c1.3,0,4.5,0,5.2,0	c4.8,0,5.4-8.2,6.8-12.5c1.3-4.3,2.7-6.2,2.7-9.2C36,17.4,33.8,16.8,33.2,15z"/><path fill="#d89f5f" d="M19,40.4c0,1.5,1.7,5.6,5,5.6l0,0c3.3,0,5-4.1,5-5.6H19z"/><path fill="#d79e5e" d="M19,40.4c0,1.5,1.7,5.6,4.9,5.6h0c3.3,0,4.9-4.1,4.9-5.6H19z"/><path fill="#d59d5e" d="M19.1,40.4c0,1.5,1.7,5.5,4.9,5.5H24c3.3,0,4.9-4.1,4.9-5.5H19.1z"/><path fill="#d49c5d" d="M19.1,40.4c0,1.4,1.6,5.5,4.9,5.5h0.1c3.2,0,4.9-4,4.9-5.5H19.1z"/><path fill="#d29a5d" d="M19.1,40.4c0,1.4,1.6,5.4,4.8,5.4h0.1c3.2,0,4.8-4,4.8-5.4H19.1z"/><path fill="#d1995c" d="M19.1,40.4c0,1.4,1.6,5.3,4.8,5.3h0.2c3.2,0,4.8-3.9,4.8-5.3H19.1z"/><path fill="#cf985c" d="M19.1,40.4c0,1.4,1.6,5.3,4.8,5.3h0.2c3.1,0,4.8-3.9,4.8-5.3H19.1z"/><path fill="#ce975b" d="M19.1,40.4c0,1.4,1.6,5.2,4.7,5.2h0.3c3.1,0,4.7-3.9,4.7-5.2H19.1z"/><path fill="#cc965b" d="M19.1,40.4c0,1.4,1.6,5.2,4.7,5.2h0.3c3.1,0,4.7-3.8,4.7-5.2H19.1z"/><path fill="#cb955a" d="M19.2,40.4c0,1.4,1.6,5.1,4.7,5.1h0.3c3,0,4.7-3.8,4.7-5.1H19.2z"/><path fill="#c9945a" d="M19.2,40.4c0,1.3,1.6,5.1,4.6,5.1h0.4c3,0,4.6-3.7,4.6-5.1H19.2z"/><path fill="#c89359" d="M19.2,40.4c0,1.3,1.6,5,4.6,5h0.4c3,0,4.6-3.7,4.6-5H19.2z"/><path fill="#c79159" d="M19.2,40.4c0,1.3,1.6,5,4.6,5h0.4c2.9,0,4.6-3.7,4.6-5H19.2z"/><path fill="#c59058" d="M19.2,40.4c0,1.3,1.6,4.9,4.5,4.9h0.5c2.9,0,4.5-3.6,4.5-4.9H19.2z"/><path fill="#c48f58" d="M19.2,40.4c0,1.3,1.6,4.9,4.5,4.9h0.5c2.9,0,4.5-3.6,4.5-4.9H19.2z"/><path fill="#c28e57" d="M19.3,40.4c0,1.3,1.6,4.8,4.5,4.8h0.6c2.9,0,4.5-3.6,4.5-4.8H19.3z"/><path fill="#c18d57" d="M19.3,40.4c0,1.3,1.6,4.8,4.4,4.8h0.6c2.8,0,4.4-3.5,4.4-4.8H19.3z"/><path fill="#bf8c56" d="M19.3,40.4c0,1.2,1.6,4.7,4.4,4.7h0.6c2.8,0,4.4-3.5,4.4-4.7H19.3z"/><path fill="#be8b55" d="M19.3,40.4c0,1.2,1.6,4.7,4.4,4.7h0.7c2.8,0,4.4-3.4,4.4-4.7H19.3z"/><path fill="#bc8955" d="M19.3,40.4c0,1.2,1.6,4.6,4.3,4.6h0.7c2.7,0,4.3-3.4,4.3-4.6H19.3z"/><path fill="#bb8854" d="M19.3,40.4c0,1.2,1.6,4.6,4.3,4.6h0.7c2.7,0,4.3-3.4,4.3-4.6H19.3z"/><path fill="#b98754" d="M19.3,40.4c0,1.2,1.6,4.5,4.3,4.5h0.8c2.7,0,4.3-3.3,4.3-4.5H19.3z"/><path fill="#b88653" d="M19.4,40.4c0,1.2,1.6,4.5,4.2,4.5h0.8c2.6,0,4.2-3.3,4.2-4.5H19.4z"/><path fill="#b68553" d="M19.4,40.4c0,1.2,1.6,4.4,4.2,4.4h0.8c2.6,0,4.2-3.3,4.2-4.4H19.4z"/><path fill="#b58452" d="M19.4,40.4c0,1.1,1.6,4.4,4.2,4.4h0.9c2.6,0,4.2-3.2,4.2-4.4H19.4z"/><path fill="#b48352" d="M19.4,40.4c0,1.1,1.6,4.3,4.1,4.3h0.9c2.5,0,4.1-3.2,4.1-4.3H19.4z"/><path fill="#b28151" d="M19.4,40.4c0,1.1,1.6,4.3,4.1,4.3h1c2.5,0,4.1-3.1,4.1-4.3H19.4z"/><path fill="#b18051" d="M19.4,40.4c0,1.1,1.6,4.2,4.1,4.2h1c2.5,0,4.1-3.1,4.1-4.2H19.4z"/><path fill="#af7f50" d="M19.5,40.4c0,1.1,1.6,4.2,4,4.2h1c2.5,0,4-3.1,4-4.2H19.5z"/><path fill="#ae7e50" d="M19.5,40.4c0,1.1,1.6,4.1,4,4.1h1.1c2.4,0,4-3,4-4.1H19.5z"/><path fill="#ac7d4f" d="M19.5,40.4c0,1.1,1.6,4,4,4h1.1c2.4,0,4-3,4-4H19.5z"/><path fill="#ab7c4f" d="M19.5,40.4c0,1,1.6,4,3.9,4h1.1c2.4,0,3.9-3,3.9-4H19.5z"/><path fill="#a97b4e" d="M19.5,40.4c0,1,1.6,3.9,3.9,3.9h1.2c2.3,0,3.9-2.9,3.9-3.9H19.5z"/><path fill="#a87a4d" d="M19.5,40.4c0,1,1.6,3.9,3.9,3.9h1.2c2.3,0,3.9-2.9,3.9-3.9H19.5z"/><path fill="#a6784d" d="M19.5,40.4c0,1,1.6,3.8,3.8,3.8h1.3c2.3,0,3.8-2.8,3.8-3.8H19.5z"/><path fill="#a5774c" d="M19.6,40.4c0,1,1.6,3.8,3.8,3.8h1.3c2.2,0,3.8-2.8,3.8-3.8H19.6z"/><path fill="#a4764c" d="M19.6,40.4c0,1,1.6,3.7,3.8,3.7h1.3c2.2,0,3.8-2.8,3.8-3.7H19.6z"/><path fill="#a2754b" d="M19.6,40.4c0,1,1.5,3.7,3.7,3.7h1.4c2.2,0,3.7-2.7,3.7-3.7H19.6z"/><path fill="#a1744b" d="M19.6,40.4c0,0.9,1.5,3.6,3.7,3.6h1.4c2.1,0,3.7-2.7,3.7-3.6H19.6z"/><path fill="#9f734a" d="M19.6,40.4c0,0.9,1.5,3.6,3.7,3.6h1.4c2.1,0,3.7-2.6,3.7-3.6H19.6z"/><path fill="#9e724a" d="M19.6,40.4c0,0.9,1.5,3.5,3.6,3.5h1.5c2.1,0,3.6-2.6,3.6-3.5H19.6z"/><path fill="#9c7049" d="M19.7,40.4c0,0.9,1.5,3.5,3.6,3.5h1.5c2.1,0,3.6-2.6,3.6-3.5H19.7z"/><path fill="#9b6f49" d="M19.7,40.4c0,0.9,1.5,3.4,3.6,3.4h1.5c2,0,3.6-2.5,3.6-3.4H19.7z"/><path fill="#996e48" d="M19.7,40.4c0,0.9,1.5,3.4,3.5,3.4h1.6c2,0,3.5-2.5,3.5-3.4H19.7z"/><path fill="#986d48" d="M19.7,40.4c0,0.9,1.5,3.3,3.5,3.3h1.6c2,0,3.5-2.5,3.5-3.3H19.7z"/><path fill="#966c47" d="M19.7,40.4c0,0.9,1.5,3.3,3.5,3.3h1.7c1.9,0,3.5-2.4,3.5-3.3H19.7z"/><path fill="#956b47" d="M19.7,40.4c0,0.8,1.5,3.2,3.4,3.2h1.7c1.9,0,3.4-2.4,3.4-3.2H19.7z"/><path fill="#946a46" d="M19.7,40.4c0,0.8,1.5,3.2,3.4,3.2h1.7c1.9,0,3.4-2.3,3.4-3.2H19.7z"/><path fill="#926846" d="M19.8,40.4c0,0.8,1.5,3.1,3.4,3.1h1.8c1.8,0,3.4-2.3,3.4-3.1H19.8z"/><path fill="#916745" d="M19.8,40.4c0,0.8,1.5,3.1,3.3,3.1h1.8c1.8,0,3.3-2.3,3.3-3.1H19.8z"/><path fill="#8f6644" d="M19.8,40.4c0,0.8,1.5,3,3.3,3h1.8c1.8,0,3.3-2.2,3.3-3H19.8z"/><path fill="#8e6544" d="M19.8,40.4c0,0.8,1.5,3,3.3,3h1.9c1.7,0,3.3-2.2,3.3-3H19.8z"/><path fill="#8c6443" d="M19.8,40.4c0,0.8,1.5,2.9,3.2,2.9H25c1.7,0,3.2-2.2,3.2-2.9H19.8z"/><path fill="#8b6343" d="M19.8,40.4c0,0.7,1.5,2.9,3.2,2.9h2c1.7,0,3.2-2.1,3.2-2.9H19.8z"/><path fill="#896242" d="M19.9,40.4c0,0.7,1.5,2.8,3.2,2.8h2c1.7,0,3.2-2.1,3.2-2.8H19.9z"/><path fill="#886142" d="M19.9,40.4c0,0.7,1.5,2.8,3.1,2.8h2c1.6,0,3.1-2,3.1-2.8H19.9z"/><path fill="#865f41" d="M19.9,40.4c0,0.7,1.5,2.7,3.1,2.7H25c1.6,0,3.1-2,3.1-2.7H19.9z"/><path fill="#855e41" d="M19.9,40.4c0,0.7,1.5,2.6,3,2.6h2.1c1.6,0,3-2,3-2.6H19.9z"/><path fill="#845d40" d="M19.9,40.4c0,0.7,1.5,2.6,3,2.6h2.1c1.5,0,3-1.9,3-2.6H19.9z"/><path fill="#825c40" d="M19.9,40.4c0,0.7,1.5,2.5,3,2.5h2.2c1.5,0,3-1.9,3-2.5H19.9z"/><path fill="#815b3f" d="M19.9,40.4c0,0.6,1.5,2.5,2.9,2.5h2.2c1.5,0,2.9-1.9,2.9-2.5H19.9z"/><path fill="#7f5a3f" d="M20,40.4c0,0.6,1.5,2.4,2.9,2.4h2.2c1.4,0,2.9-1.8,2.9-2.4H20z"/><path fill="#7e593e" d="M20,40.4c0,0.6,1.5,2.4,2.9,2.4h2.3c1.4,0,2.9-1.8,2.9-2.4H20z"/><path fill="#7c573e" d="M20,40.4c0,0.6,1.5,2.3,2.8,2.3h2.3c1.4,0,2.8-1.7,2.8-2.3H20z"/><path fill="#7b563d" d="M20,40.4c0,0.6,1.5,2.3,2.8,2.3h2.4c1.3,0,2.8-1.7,2.8-2.3H20z"/><path fill="#79553c" d="M20,40.4c0,0.6,1.5,2.2,2.8,2.2h2.4c1.3,0,2.8-1.7,2.8-2.2H20z"/><path fill="#78543c" d="M20,40.4c0,0.6,1.5,2.2,2.7,2.2h2.4c1.3,0,2.7-1.6,2.7-2.2H20z"/><path fill="#76533b" d="M20.1,40.4c0,0.5,1.5,2.1,2.7,2.1h2.5c1.3,0,2.7-1.6,2.7-2.1H20.1z"/><path fill="#75523b" d="M20.1,40.4c0,0.5,1.5,2.1,2.7,2.1h2.5c1.2,0,2.7-1.5,2.7-2.1H20.1z"/><path fill="#73513a" d="M20.1,40.4c0,0.5,1.5,2,2.6,2h2.5c1.2,0,2.6-1.5,2.6-2H20.1z"/><path fill="#724f3a" d="M20.1,40.4c0,0.5,1.5,2,2.6,2h2.6c1.2,0,2.6-1.5,2.6-2H20.1z"/><path fill="#714e39" d="M20.1,40.4c0,0.5,1.4,1.9,2.6,1.9h2.6c1.1,0,2.6-1.4,2.6-1.9H20.1z"/><path fill="#6f4d39" d="M20.1,40.4c0,0.5,1.4,1.9,2.5,1.9h2.7c1.1,0,2.5-1.4,2.5-1.9H20.1z"/><path fill="#6e4c38" d="M20.1,40.4c0,0.5,1.4,1.8,2.5,1.8h2.7c1.1,0,2.5-1.4,2.5-1.8H20.1z"/><path fill="#6c4b38" d="M20.2,40.4c0,0.4,1.4,1.8,2.5,1.8h2.7c1,0,2.5-1.3,2.5-1.8H20.2z"/><path fill="#6b4a37" d="M20.2,40.4c0,0.4,1.4,1.7,2.4,1.7h2.8c1,0,2.4-1.3,2.4-1.7H20.2z"/><path fill="#694937" d="M20.2,40.4c0,0.4,1.4,1.7,2.4,1.7h2.8c1,0,2.4-1.2,2.4-1.7H20.2z"/><path fill="#684836" d="M20.2,40.4c0,0.4,1.4,1.6,2.4,1.6h2.8c0.9,0,2.4-1.2,2.4-1.6H20.2z"/><path fill="#664636" d="M20.2,40.4c0,0.4,1.4,1.6,2.3,1.6h2.9c0.9,0,2.3-1.2,2.3-1.6H20.2z"/><path fill="#654535" d="M20.2,40.4c0,0.4,1.4,1.5,2.3,1.5h2.9c0.9,0,2.3-1.1,2.3-1.5H20.2z"/><path fill="#634435" d="M20.3,40.4c0,0.4,1.4,1.5,2.3,1.5h2.9c0.9,0,2.3-1.1,2.3-1.5H20.3z"/><path fill="#624334" d="M20.3,40.4c0,0.3,1.4,1.4,2.2,1.4h3c0.8,0,2.2-1.1,2.2-1.4H20.3z"/><radialGradient id="YyM4fG~1YNjZ7VzYYfKrCm" cx="-33.036" cy="52.976" r="12.906" gradientTransform="matrix(.6667 0 0 .7633 46 .011)" gradientUnits="userSpaceOnUse"><stop offset="0" stop-color="#f1ead6" stop-opacity="0"/><stop offset=".197" stop-color="#f1e9d3" stop-opacity=".321"/><stop offset=".321" stop-color="#f1e5cb" stop-opacity=".525"/><stop offset=".426" stop-color="#f1dfbc" stop-opacity=".696"/><stop offset=".519" stop-color="#f2d6a7" stop-opacity=".848"/><stop offset=".605" stop-color="#f2ca8d" stop-opacity=".988"/><stop offset=".613" stop-color="#f2c98a"/></radialGradient><path fill="url(#YyM4fG~1YNjZ7VzYYfKrCm)" d="M29,40.4c0,0.7-0.4,2.1-1.2,3.4C26.9,45,25.7,46,24,46c-3.3,0-5-4.1-5-5.6H29z"/><radialGradient id="YyM4fG~1YNjZ7VzYYfKrCn" cx="22.754" cy="32.663" r="8.617" fx="22.783" fy="25.829" gradientTransform="matrix(.9646 0 0 1.3311 2.05 -10.126)" gradientUnits="userSpaceOnUse"><stop offset=".376" stop-color="#f1ead6"/><stop offset=".501" stop-color="#f1e7ce"/><stop offset=".691" stop-color="#f1deba"/><stop offset=".919" stop-color="#f2cf98"/><stop offset="1" stop-color="#f2c98a"/></radialGradient><path fill="url(#YyM4fG~1YNjZ7VzYYfKrCn)" d="M24,24c0,0-6,10.3-6,14s2.4,5,6,5l0,0v0c3.6,0,6-1.3,6-5S24,24,24,24z"/><radialGradient id="YyM4fG~1YNjZ7VzYYfKrCo" cx="-9.93" cy="58.298" r="6.275" gradientTransform="matrix(.75 0 0 .8119 31.5 -12.17)" gradientUnits="userSpaceOnUse"><stop offset=".544" stop-color="#c6a98b"/><stop offset=".631" stop-color="#b99c80"/><stop offset=".793" stop-color="#967862"/><stop offset="1" stop-color="#624334"/></radialGradient><path fill="url(#YyM4fG~1YNjZ7VzYYfKrCo)" d="M24,42L24,42c0.9-1.4,3.7-2,3.7-4c0-2.2-1.7,0-3.7,0s-3.7-2.2-3.7,0C20.3,40,23.1,40.6,24,42z"/><g><radialGradient id="YyM4fG~1YNjZ7VzYYfKrCp" cx="68.292" cy="-25.068" r="2.323" fx="68.971" fy="-24.92" gradientTransform="matrix(1.1713 -.1596 .1924 1.923 -42.264 79.94)" gradientUnits="userSpaceOnUse"><stop offset=".284" stop-color="#f1ead6"/><stop offset="1" stop-color="#f1ead6" stop-opacity="0"/></radialGradient><path fill="url(#YyM4fG~1YNjZ7VzYYfKrCp)" d="M36,20c0,1-1,2.2-1.7,2.7C33.3,23.4,30,23,30,23c0-2,0-7.2,2.2-7.1C34,16,36,18.6,36,20z"/><radialGradient id="YyM4fG~1YNjZ7VzYYfKrCq" cx="31.022" cy="21.388" r="3.739" fx="32.196" fy="21.36" gradientTransform="matrix(.5549 -.8319 .4797 .3199 3.55 40.355)" gradientUnits="userSpaceOnUse"><stop offset=".269" stop-color="#624334"/><stop offset=".357" stop-color="#684736" stop-opacity=".845"/><stop offset=".469" stop-color="#77543c" stop-opacity=".646"/><stop offset=".594" stop-color="#916845" stop-opacity=".426"/><stop offset=".728" stop-color="#b58452" stop-opacity=".19"/><stop offset=".836" stop-color="#d89f5f" stop-opacity="0"/></radialGradient><path fill="url(#YyM4fG~1YNjZ7VzYYfKrCq)" d="M30,23c0,0,0.7-2,2.3-2.7c0.7-0.3,2,2.4,2,2.4C33.5,23.4,30,23,30,23z"/><radialGradient id="YyM4fG~1YNjZ7VzYYfKrCr" cx="61.147" cy="21.85" r="3.52" fx="61.147" fy="21.767" gradientTransform="matrix(.9669 -.2552 .152 .5761 -29.169 24.653)" gradientUnits="userSpaceOnUse"><stop offset=".084" stop-color="#130c10"/><stop offset=".118" stop-color="#150d11"/><stop offset=".131" stop-color="#1c1113"/><stop offset=".139" stop-color="#271916"/><stop offset=".146" stop-color="#38231b"/><stop offset=".152" stop-color="#4e3022"/><stop offset=".158" stop-color="#6a412a"/><stop offset=".163" stop-color="#8a5533"/><stop offset=".167" stop-color="#ae6b3e"/><stop offset=".168" stop-color="#b87141"/><stop offset=".362" stop-color="#7f3e16"/><stop offset=".368" stop-color="#7c3d16"/><stop offset=".455" stop-color="#562a10"/><stop offset=".536" stop-color="#3a1c0b"/><stop offset=".607" stop-color="#291409"/><stop offset=".659" stop-color="#231108"/><stop offset=".875" stop-color="#120810"/></radialGradient><path fill="url(#YyM4fG~1YNjZ7VzYYfKrCr)" d="M31,22.2c0,0-0.2-1.4,1.3-2c1.4-0.6,2.4-0.1,2.4-0.1s0.9,1.6-0.4,2.5C33.6,23.2,32,23.1,31,22.2z"/><radialGradient id="YyM4fG~1YNjZ7VzYYfKrCs" cx="358.841" cy="21.022" r="3.635" fx="358.847" fy="21.046" gradientTransform="matrix(.9807 -.1955 .128 .6422 -321.64 77.453)" gradientUnits="userSpaceOnUse"><stop offset="0" stop-color="#c9b8a3" stop-opacity=".7"/><stop offset=".067" stop-color="#a89887" stop-opacity=".653"/><stop offset=".16" stop-color="#817366" stop-opacity=".588"/><stop offset=".259" stop-color="#60544a" stop-opacity=".519"/><stop offset=".365" stop-color="#453a34" stop-opacity=".445"/><stop offset=".48" stop-color="#302622" stop-opacity=".364"/><stop offset=".608" stop-color="#211816" stop-opacity=".274"/><stop offset=".761" stop-color="#19100e" stop-opacity=".168"/><stop offset="1" stop-color="#160d0c" stop-opacity="0"/></radialGradient><path fill="url(#YyM4fG~1YNjZ7VzYYfKrCs)" d="M31,22.2c0,0-0.2-1.4,1.3-2c1.4-0.6,2.4-0.1,2.4-0.1s0.9,1.6-0.4,2.5C33.6,23.2,32,23.1,31,22.2z"/><ellipse cx="33.3" cy="21.6" rx="1.2" ry=".4" transform="rotate(-16.409 33.292 21.641)"/></g><g><radialGradient id="YyM4fG~1YNjZ7VzYYfKrCt" cx="141.218" cy="-25.068" r="2.323" fx="141.896" fy="-24.92" gradientTransform="matrix(-1.1713 -.1596 -.1924 1.923 175.684 91.576)" gradientUnits="userSpaceOnUse"><stop offset=".284" stop-color="#f1ead6"/><stop offset="1" stop-color="#f1ead6" stop-opacity="0"/></radialGradient><path fill="url(#YyM4fG~1YNjZ7VzYYfKrCt)" d="M12,20c0,1,1,2.2,1.7,2.7c1,0.7,4.3,0.3,4.3,0.3c0-2,0-7.2-2.2-7.1C14,16,12,18.6,12,20z"/><radialGradient id="YyM4fG~1YNjZ7VzYYfKrCu" cx="117.022" cy="21.388" r="3.739" fx="118.196" fy="21.36" gradientTransform="matrix(-.5549 -.8319 -.4797 .3199 92.168 111.902)" gradientUnits="userSpaceOnUse"><stop offset=".269" stop-color="#624334"/><stop offset=".357" stop-color="#684736" stop-opacity=".845"/><stop offset=".469" stop-color="#77543c" stop-opacity=".646"/><stop offset=".594" stop-color="#916845" stop-opacity=".426"/><stop offset=".728" stop-color="#b58452" stop-opacity=".19"/><stop offset=".836" stop-color="#d89f5f" stop-opacity="0"/></radialGradient><path fill="url(#YyM4fG~1YNjZ7VzYYfKrCu)" d="M18,23c0,0-0.7-2-2.3-2.7c-0.7-0.3-2,2.4-2,2.4C14.5,23.4,18,23,18,23z"/><radialGradient id="YyM4fG~1YNjZ7VzYYfKrCv" cx="147.147" cy="21.85" r="3.52" fx="147.147" fy="21.767" gradientTransform="matrix(-.9669 -.2552 -.152 .5761 160.322 46.597)" gradientUnits="userSpaceOnUse"><stop offset=".084" stop-color="#130c10"/><stop offset=".118" stop-color="#150d11"/><stop offset=".131" stop-color="#1c1113"/><stop offset=".139" stop-color="#271916"/><stop offset=".146" stop-color="#38231b"/><stop offset=".152" stop-color="#4e3022"/><stop offset=".158" stop-color="#6a412a"/><stop offset=".163" stop-color="#8a5533"/><stop offset=".167" stop-color="#ae6b3e"/><stop offset=".168" stop-color="#b87141"/><stop offset=".362" stop-color="#7f3e16"/><stop offset=".368" stop-color="#7c3d16"/><stop offset=".455" stop-color="#562a10"/><stop offset=".536" stop-color="#3a1c0b"/><stop offset=".607" stop-color="#291409"/><stop offset=".659" stop-color="#231108"/><stop offset=".875" stop-color="#120810"/></radialGradient><path fill="url(#YyM4fG~1YNjZ7VzYYfKrCv)" d="M17,22.2c0,0,0.2-1.4-1.3-2c-1.4-0.6-2.4-0.1-2.4-0.1s-0.9,1.6,0.4,2.5C14.4,23.2,16,23.1,17,22.2z"/><radialGradient id="YyM4fG~1YNjZ7VzYYfKrCw" cx="444.841" cy="21.022" r="3.635" fx="444.847" fy="21.046" gradientTransform="matrix(-.9807 -.1955 -.128 .6422 453.98 94.263)" gradientUnits="userSpaceOnUse"><stop offset="0" stop-color="#c9b8a3" stop-opacity=".7"/><stop offset=".067" stop-color="#a89887" stop-opacity=".653"/><stop offset=".16" stop-color="#817366" stop-opacity=".588"/><stop offset=".259" stop-color="#60544a" stop-opacity=".519"/><stop offset=".365" stop-color="#453a34" stop-opacity=".445"/><stop offset=".48" stop-color="#302622" stop-opacity=".364"/><stop offset=".608" stop-color="#211816" stop-opacity=".274"/><stop offset=".761" stop-color="#19100e" stop-opacity=".168"/><stop offset="1" stop-color="#160d0c" stop-opacity="0"/></radialGradient><path fill="url(#YyM4fG~1YNjZ7VzYYfKrCw)" d="M17,22.2c0,0,0.2-1.4-1.3-2c-1.4-0.6-2.4-0.1-2.4-0.1s-0.9,1.6,0.4,2.5C14.4,23.2,16,23.1,17,22.2z"/><ellipse cx="14.7" cy="21.6" rx=".4" ry="1.2" transform="rotate(-73.591 14.71 21.64)"/></g><radialGradient id="YyM4fG~1YNjZ7VzYYfKrCx" cx="12.802" cy="11.081" r="6.215" gradientTransform="matrix(-.8188 -.5017 .5339 -.8644 18.84 22.399)" gradientUnits="userSpaceOnUse"><stop offset=".305" stop-color="#90886f" stop-opacity="0"/><stop offset=".66" stop-color="#cfc293"/><stop offset=".71" stop-color="#bfb38a"/><stop offset=".83" stop-color="#9d9476"/><stop offset=".895" stop-color="#90886f"/></radialGradient><path fill="url(#YyM4fG~1YNjZ7VzYYfKrCx)" d="M18.5,2.9c-0.5-0.3-1.1-0.6-1.9-0.8c-1-0.2-2.4-0.2-3.3,0.1C11.8,2.7,11.1,5,11,6.2c0,0.3,0.1,0.5,1-0.6	c0.9-1.2,2.8-0.6,3-0.5C15.2,2.1,18.1,2.6,18.5,2.9z"/><radialGradient id="YyM4fG~1YNjZ7VzYYfKrCy" cx="24.346" cy="66.748" r="2.305" gradientTransform="matrix(.8255 0 0 2.0638 3.993 -123.995)" gradientUnits="userSpaceOnUse"><stop offset="0" stop-color="#e8b17c"/><stop offset=".211" stop-color="#e9b989" stop-opacity=".789"/><stop offset=".606" stop-color="#edd0ad" stop-opacity=".394"/><stop offset="1" stop-color="#f1ead6" stop-opacity="0"/></radialGradient><path fill="url(#YyM4fG~1YNjZ7VzYYfKrCy)" d="M26,15c0,2.8-0.9,5-2,5s-2-2.2-2-5s0.9-4,2-4S26,12.2,26,15z"/></svg>